{
  "accessors": [
    {
      "bufferView": 2,
      "componentType": 5126,
      "count": 31006,
      "max": [
        2.6941156387329102,
        -0.28540408611297607,
        1.7500792741775513
      ],
      "min": [
        -2.6435878276824951,
        -16.096345901489258,
        -2.8975551128387451
      ],
      "type": "VEC3"
    },
    {
      "bufferView": 2,
      "byteOffset": 372072,
      "componentType": 5126,
      "count": 31006,
      "max": [
        0.99999874830245972,
        1,
        1
      ],
      "min": [
        -0.99998122453689575,
        -1,
        -1
      ],
      "type": "VEC3"
    },
    {
      "bufferView": 1,
      "componentType": 5126,
      "count": 31006,
      "max": [
        0.99853515625,
        0.83017134666442871
      ],
      "min": [
        0,
        0
      ],
      "type": "VEC2"
    },
    {
      "bufferView": 0,
      "componentType": 5125,
      "count": 141882,
      "max": [
        31005
      ],
      "min": [
        0
      ],
      "type": "SCALAR"
    }
  ],
  "asset": {
    "extras": {
      "author": "Kirilei (https://sketchfab.com/kirilei)",
      "license": "CC-BY-4.0 (http://creativecommons.org/licenses/by/4.0/)",
      "source": "https://sketchfab.com/3d-models/mid-century-inspired-rocket-ship-37906c6e67c24b71b36bdc03ae55834a",
      "title": "Mid century inspired rocket ship"
    },
    "generator": "Sketchfab-8.29.0",
    "version": "2.0"
  },
  "bufferViews": [
    {
      "buffer": 0,
      "byteLength": 567528,
      "byteOffset": 0,
      "name": "floatBufferViews",
      "target": 34963
    },
    {
      "buffer": 0,
      "byteLength": 248048,
      "byteOffset": 567528,
      "byteStride": 8,
      "name": "floatBufferViews",
      "target": 34962
    },
    {
      "buffer": 0,
      "byteLength": 744144,
      "byteOffset": 815576,
      "byteStride": 12,
      "name": "floatBufferViews",
      "target": 34962
    }
  ],
  "buffers": [
    {
      "byteLength": 1559720,
      "uri": "scene.bin"
    }
  ],
  "materials": [
    {
      "doubleSided": true,
      "emissiveFactor": [
        0,
        0,
        0
      ],
      "name": "Default",
      "pbrMetallicRoughness": {
        "baseColorFactor": [
          0.322040551672235,
          0.3852709967802182,
          0.57571940139161815,
          1
        ],
        "metallicFactor": 0.92589636952860421,
        "roughnessFactor": 0.44499419343462898
      }
    }
  ],
  "meshes": [
    {
      "primitives": [
        {
          "attributes": {
            "NORMAL": 1,
            "POSITION": 0,
            "TEXCOORD_0": 2
          },
          "indices": 3,
          "material": 0,
          "mode": 4
        }
      ]
    }
  ],
  "nodes": [
    {
      "children": [
        1
      ],
      "name": "RootNode (gltf orientation matrix)",
      "rotation": [
        -0.70710678118654746,
        -0,
        -0,
        0.70710678118654757
      ]
    },
    {
      "children": [
        2
      ],
      "matrix": [
        -0.38812986016273499,
        -4.2190648149599554e-20,
        9.1764419531004376e-05,
        0,
        -2.1289849886064739e-20,
        0.38812986016273499,
        8.8402711813568267e-17,
        0,
        -9.1764419531004376e-05,
        8.8402701539856412e-17,
        -0.38812986016273499,
        0,
        0.050387430936098099,
        0.00030842219712212682,
        -1.1474936008453369,
        1
      ],
      "name": "RootNode (model correction matrix)"
    },
    {
      "children": [
        3
      ],
      "name": "Spaceship 1 try 2.obj.cleaner.materialmerger.gles"
    },
    {
      "mesh": 0,
      "name": ""
    }
  ],
  "scene": 0,
  "scenes": [
    {
      "name": "OSG_Scene",
      "nodes": [
        0
      ]
    }
  ]
}

